<svg fill="#ffffff" role="img" viewBox="0 0 24 24" xmlns="http://www.w3.org/2000/svg"><title>LinkedIn</title><path d="M22.225 0H1.771C.792 0 0 .774 0 1.729v20.542C0 23.227.792 24 1.771 24h20.451C23.2 24 24 23.227 24 22.271V1.729C24 .774 23.2 0 22.225 0zM7.059 20.452H3.56V9h3.5v11.452zM5.309 7.433c-1.121 0-2.03-.911-2.03-2.034 0-1.122.909-2.033 2.03-2.033 1.122 0 2.031.911 2.031 2.033 0 1.123-.909 2.034-2.031 2.034zM20.452 20.452h-3.498v-5.571c0-1.328-.025-3.036-1.85-3.036-1.851 0-2.134 1.446-2.134 2.942v5.665H9.471V9h3.358v1.561h.048c.468-.886 1.609-1.82 3.312-1.82 3.542 0 4.263 2.333 4.263 5.363v6.348z"/></svg>
