<?xml version="1.0" standalone="no"?>
<!DOCTYPE svg PUBLIC "-//W3C//DTD SVG 20010904//EN"
 "http://www.w3.org/TR/2001/REC-SVG-20010904/DTD/svg10.dtd">
<svg version="1.0" xmlns="http://www.w3.org/2000/svg"
 width="300.000000pt" height="300.000000pt" viewBox="0 0 300.000000 300.000000"
 preserveAspectRatio="xMidYMid meet">
<metadata>
Created by potrace 1.10, written by Peter Selinger 2001-2011
</metadata>
<g transform="translate(0.000000,300.000000) scale(0.100000,-0.100000)"
fill="#000000" stroke="none">
<path d="M0 1500 l0 -1500 1500 0 1500 0 0 1500 0 1500 -1500 0 -1500 0 0
-1500z m1552 923 c17 -15 18 -53 18 -805 0 -709 -2 -791 -16 -813 -21 -33 -49
-32 -71 2 -17 25 -18 77 -18 809 0 755 1 783 19 803 23 25 43 27 68 4z m-243
-259 c20 -25 21 -39 21 -288 0 -221 -2 -265 -16 -284 -19 -28 -49 -28 -68 0
-12 16 -16 49 -17 118 -1 52 -4 141 -8 198 l-6 102 -227 -225 c-125 -124 -234
-225 -242 -225 -19 0 -56 39 -56 59 0 25 552 571 577 571 12 0 31 -12 42 -26z
m1005 -505 c54 -42 47 -52 -236 -336 -154 -154 -270 -263 -281 -263 -10 0 -25
6 -33 14 -35 35 -19 57 196 272 115 115 210 212 210 217 0 4 -105 7 -234 7
l-234 0 -16 25 c-21 31 -20 37 4 63 20 22 25 22 309 22 277 0 289 -1 315 -21z"/>
<path d="M1505 2408 c-3 -7 -4 -368 -3 -803 3 -694 5 -790 18 -790 13 0 15 95
15 799 0 630 -3 800 -12 803 -7 3 -15 -1 -18 -9z"/>
<path d="M986 1891 c-193 -194 -267 -274 -263 -285 4 -9 10 -16 15 -16 4 0
122 115 262 255 l255 256 5 -248 c4 -212 7 -248 20 -248 13 0 15 38 18 269 2
273 1 285 -33 286 -6 0 -131 -121 -279 -269z"/>
<path d="M1704 1635 c-13 -33 6 -35 279 -35 l272 0 -244 -244 c-223 -223 -258
-266 -218 -266 22 0 530 517 524 532 -4 12 -47 16 -218 21 -329 11 -389 9
-395 -8z"/>
</g>
</svg>
